<svg xmlns="http://www.w3.org/2000/svg" version="1.1" xmlns:xlink="http://www.w3.org/1999/xlink" xmlns:svgjs="http://svgjs.dev/svgjs" width="2000" height="1247" viewBox="0 0 2000 1247"><g transform="matrix(1,0,0,1,-1.2121212121212466,0.504858299595071)"><svg viewBox="0 0 396 247" data-background-color="#000000" preserveAspectRatio="xMidYMid meet" height="1247" width="2000" xmlns="http://www.w3.org/2000/svg" xmlns:xlink="http://www.w3.org/1999/xlink"><g id="tight-bounds" transform="matrix(1,0,0,1,0.2400000000000091,-0.09999999999999432)"><svg viewBox="0 0 395.52 247.2" height="247.2" width="395.52"><g><svg></svg></g><g><svg viewBox="0 0 395.52 247.2" height="247.2" width="395.52"><g transform="matrix(1,0,0,1,97.82839512195122,47.215199999999996)"><svg viewBox="0 0 199.86320975609755 152.7696" height="152.7696" width="199.86320975609755"><g><svg viewBox="0 0 199.86320975609755 152.7696" height="152.7696" width="199.86320975609755"><g><svg viewBox="0 0 199.86320975609755 152.7696" height="152.7696" width="199.86320975609755"><g><svg viewBox="0 0 199.86320975609755 152.7696" height="152.7696" width="199.86320975609755"><g id="textblocktransform"><svg viewBox="0 0 199.86320975609755 152.7696" height="152.7696" width="199.86320975609755" id="textblock"><g><svg viewBox="0 0 199.86320975609755 152.7696" height="152.7696" width="199.86320975609755"><g transform="matrix(1,0,0,1,0,0)"><svg width="199.86320975609755" viewBox="1.440000057220459 -35.54999923706055 47.1400032043457 36.040000915527344" height="152.7696" data-palette-color="#ffffff"><path d="M16.09-10.4L16.09-35.55 20.58-35.55 20.58-10.38Q20.58-5.27 17.98-2.39 15.38 0.49 10.99 0.49L10.99 0.49Q6.47 0.49 3.96-2.25 1.44-4.98 1.44-9.81L1.44-9.81 5.91-9.81Q5.91-6.76 7.25-5.05 8.59-3.34 10.99-3.34L10.99-3.34Q13.31-3.34 14.7-5.2 16.09-7.06 16.09-10.4L16.09-10.4ZM38.47 0L28 0 28-35.55 38.13-35.55Q42.99-35.55 45.44-33.18 47.9-30.81 47.9-26.07L47.9-26.07Q47.9-23.58 46.65-21.68 45.41-19.78 43.28-18.73L43.28-18.73Q45.73-17.99 47.15-15.72 48.58-13.45 48.58-10.25L48.58-10.25Q48.58-5.47 45.96-2.73 43.33 0 38.47 0L38.47 0ZM38.67-16.63L32.47-16.63 32.47-3.83 38.57-3.83Q41.11-3.83 42.6-5.51 44.09-7.18 44.09-10.21L44.09-10.21Q44.09-16.63 38.67-16.63L38.67-16.63ZM32.47-31.69L32.47-20.39 38.21-20.39Q40.52-20.39 41.95-21.95 43.38-23.51 43.38-26.1L43.38-26.1Q43.38-29.03 42.09-30.36 40.79-31.69 38.13-31.69L38.13-31.69 32.47-31.69Z" opacity="1" transform="matrix(1,0,0,1,0,0)" fill="#ffffff" class="undefined-text-0" data-fill-palette-color="primary" id="text-0"></path></svg></g></svg></g></svg></g></svg></g></svg></g></svg></g></svg></g><g><path d="M0 123.6c0-68.262 55.338-123.6 123.6-123.6 30.402 0 58.24 10.976 79.768 29.183l-11.147 0c-19.26-14.022-42.974-22.294-68.621-22.295-64.458 0-116.712 52.254-116.712 116.712 0 64.458 52.254 116.712 116.712 116.712 25.647 0 49.361-8.272 68.621-22.295l11.147 0c-21.528 18.206-49.366 29.183-79.768 29.183-68.262 0-123.6-55.338-123.6-123.6z" fill="#ffffff" stroke="transparent" data-fill-palette-color="tertiary"></path></g></svg></g><defs></defs></svg><rect width="395.52" height="247.2" fill="none" stroke="none" visibility="hidden"></rect></g></svg></g></svg>