<?xml version="1.0" encoding="utf-8"?>
<!-- Generator: Adobe Illustrator 23.1.0, SVG Export Plug-In . SVG Version: 6.00 Build 0)  -->
<svg version="1.1" id="Layer_1" xmlns="http://www.w3.org/2000/svg" xmlns:xlink="http://www.w3.org/1999/xlink" x="0px" y="0px"
	 viewBox="0 0 370 96" style="enable-background:new 0 0 370 96;" xml:space="preserve">
<title>6</title>
<desc>Created with Sketch.</desc>
<g>
	<path id="Shape" d="M50.6,13.5c-3.3-3.5-8.2-5.9-14.7-7.1L14.6,2.6c-0.5-0.1-1,0-1.4,0.3c-0.4,0.3-0.7,0.7-0.8,1.2l-7.9,45
		c-0.2,1,0.5,2,1.6,2.2L20.5,54c1,0.2,2-0.5,2.2-1.5l2.3-13.3L30,40c6.6,1.2,12,0.7,16.2-1.3c4.2-2.1,6.8-5.9,7.8-11.4
		C55,21.6,53.9,17.1,50.6,13.5z"/>
	<path d="M99.3,55.2c1.7-2.1,2.8-4.7,3.3-7.3c0.5-2.8,0.2-5.7-0.8-8.4c-1.8-5.1-5-8.4-9.7-10c-4.6-1.6-10.1-1.3-16.5,1l-19.6,7
		c-0.5,0.2-0.9,0.5-1.1,1c-0.2,0.5-0.3,1-0.1,1.5l15.4,43.3c0.2,0.5,0.5,0.9,1,1.1c0.5,0.2,1,0.3,1.4,0.1l13-4.6
		c1-0.4,1.5-1.5,1.1-2.5l-4.6-12.8l2.7-0.9l10.3,10.8c0.4,0.4,0.9,0.7,1.4,0.9c0.7,0.2,1.4,0.2,2-0.1l13.6-4.8
		c0.4-0.1,0.7-0.4,0.9-0.8c0.2-0.4,0.2-0.8,0.1-1.2c-0.1-0.3-0.3-0.5-0.5-0.7L99.3,55.2z"/>
	<path d="M161.6,11.3L126.5,1.1c-1-0.3-2.1,0.3-2.4,1.3l-13,43.8c-0.3,1,0.3,2,1.3,2.4l35.7,10.4c0.5,0.2,1,0.1,1.5-0.2
		c0.5-0.2,0.8-0.6,0.9-1.1l2.9-9.6c0.1-0.5,0.1-1-0.2-1.5c-0.2-0.4-0.6-0.8-1.1-0.9l-21.1-6.1l1.3-4.3l19,5.6c0.5,0.2,1,0.1,1.5-0.2
		c0.5-0.2,0.8-0.6,0.9-1.1l2.6-8.8c0.2-0.5,0.1-1-0.2-1.5c-0.2-0.4-0.6-0.8-1.1-0.9l-19-5.6l1.3-4.3l20.5,6c0.5,0.2,1,0.1,1.5-0.2
		c0.5-0.2,0.8-0.6,0.9-1.1l2.9-9.6c0.1-0.5,0.1-1-0.2-1.4C162.5,11.8,162.1,11.5,161.6,11.3z"/>
	<path d="M210.6,49.1l-40.2-11c-0.5-0.1-1-0.1-1.5,0.2c-0.4,0.2-0.8,0.7-0.9,1.2l-3,11.2c-0.2,1,0.4,2.1,1.4,2.4l11.4,3.1l-8.5,31.7
		c-0.1,0.5-0.1,1,0.2,1.5c0.2,0.5,0.7,0.8,1.2,0.9l13.7,3.8c0.5,0.1,1,0.1,1.5-0.2c0.4-0.2,0.8-0.7,0.9-1.2l8.5-31.7l11.4,3.1
		c1,0.3,2.1-0.3,2.4-1.4l3-11.2c0.1-0.5,0.1-1-0.2-1.5C211.5,49.6,211.1,49.2,210.6,49.1z"/>
	<path d="M255.6,36.5c-0.5-0.2-1-0.3-1.4-0.1l-18.4,6.7l-11.3-31.3c-0.2-0.5-0.5-0.9-1-1.1c-0.5-0.2-1-0.3-1.5-0.1l-13.2,4.8
		c-0.5,0.2-0.9,0.5-1.1,1c-0.2,0.5-0.2,1-0.1,1.5l15.7,43.2c0.4,1,1.5,1.5,2.5,1.1l33.3-12.1c0.5-0.2,0.9-0.5,1.1-1
		c0.2-0.5,0.2-1,0.1-1.5l-3.6-10.1C256.4,37.1,256.1,36.7,255.6,36.5z"/>
	<path d="M315.9,76.4l-27-39.7c-0.4-0.6-0.9-1-1.5-1.3c-0.7-0.3-1.5-0.4-2.2-0.1l-15,3.9c-0.8,0.2-1.5,0.6-1.9,1.2
		c-0.4,0.5-0.6,1.2-0.6,1.8L263.9,90c0,0.2,0,0.3,0,0.5c0.2,0.8,1.1,1.3,1.9,1.1l12.8-3.4c1.2-0.2,2.2-1.2,2.3-2.4l0.5-5l14.8-3.9
		l2.9,4.1c0.7,1,2,1.4,3.2,1l12.8-3.4c0.8-0.2,1.3-1.1,1.1-1.9C316,76.7,316,76.5,315.9,76.4z"/>
	<path d="M367.9,46.8c-0.1-0.3-0.2-0.5-0.4-0.7l-20-18.9l6.3-24.3c0.1-0.3,0.1-0.5,0-0.8c-0.1-0.4-0.4-0.7-0.8-0.9
		c-0.4-0.2-0.8-0.3-1.2-0.1l-15.1,4.4c-1.2,0.2-2.1,1.1-2.3,2.3L330.8,24l-4-13.6c-0.1-0.5-0.5-0.9-0.9-1.1c-0.4-0.3-1-0.3-1.5-0.2
		l-13.1,3.8c-1,0.3-1.6,1.4-1.3,2.4l12.8,44.4c0.1,0.5,0.5,0.9,0.9,1.2c0.4,0.3,1,0.3,1.5,0.2l13.1-3.8c0.5-0.1,0.9-0.5,1.1-0.9
		c0.3-0.4,0.3-1,0.2-1.5L335.4,40L348,52.6c0.4,0.4,0.8,0.6,1.3,0.8c0.6,0.2,1.3,0.2,2,0l15.6-4.5c0.4-0.1,0.7-0.4,0.9-0.8
		C368,47.7,368.1,47.3,367.9,46.8z"/>
</g>
</svg>
